<svg width="72" height="36" viewBox="0 0 72 36" fill="none" xmlns="http://www.w3.org/2000/svg">
<path fill-rule="evenodd" clip-rule="evenodd" d="M26.581 36C25.8651 36 25.142 35.9306 24.421 35.7898C21.6262 35.243 17.8471 32.8813 16.1532 28.9881C15.9717 28.5712 16.1632 28.0865 16.5807 27.9054C16.9981 27.7239 17.4837 27.9156 17.6651 28.3323C19.122 31.6805 22.3526 33.7078 24.7378 34.1746C27.0301 34.6219 29.3399 34.2267 31.2423 33.0609C32.9286 32.0244 34.101 30.5147 34.7262 28.5733C36.0105 24.5722 34.4977 20.1802 30.962 17.645C27.5084 15.1676 23.1668 14.008 18.0584 14.1961C13.1231 14.3784 8.49084 12.5609 4.66074 8.94121C3.36555 7.71702 2.36922 6.48706 1.66032 5.49439C1.6618 7.43347 2.0706 10.2698 4.02321 12.7202C6.81969 16.2292 11.9284 18.017 19.2075 18.0333C19.6629 18.0342 20.031 18.4037 20.0299 18.8582C20.029 19.312 19.6601 19.6793 19.2058 19.6793C19.2051 19.6791 19.2045 19.6793 19.2038 19.6793C11.3868 19.6614 5.84061 17.6593 2.71942 13.7275C-1.10221 8.9135 0.203286 3.0558 0.260643 2.80873C0.339276 2.47123 0.621015 2.21899 0.965569 2.17784C1.31072 2.13725 1.64357 2.31542 1.79968 2.62488C1.81264 2.65 3.15459 5.26472 5.83427 7.78394C9.37713 11.1142 13.4673 12.7165 17.9976 12.5514C23.4793 12.3474 28.1659 13.6129 31.9237 16.3081C36.0422 19.2609 37.7992 24.3923 36.2959 29.0764C35.5469 31.4027 34.137 33.2149 32.1055 34.4632C30.4517 35.4764 28.5443 36.0001 26.581 36Z" fill="#c5a059"/>
<path fill-rule="evenodd" clip-rule="evenodd" d="M21.1432 30.018C19.6837 30.018 18.1716 29.8591 16.6919 29.4518C13.1663 28.481 10.501 26.2876 8.76981 22.9321C8.56153 22.5278 8.72046 22.0317 9.12514 21.8236C9.53001 21.6151 10.027 21.7745 10.2354 22.1783C11.7471 25.1082 14.0667 27.0217 17.1301 27.865C23.1637 29.5261 30.1293 26.5276 30.1989 26.4971C30.6158 26.3146 31.1019 26.5039 31.2849 26.9199C31.4678 27.3356 31.2787 27.821 30.8622 28.0039C30.6249 28.1081 26.2009 30.0182 21.1432 30.018Z" fill="#c5a059"/>
<path fill-rule="evenodd" clip-rule="evenodd" d="M15.1645 24.3715C12.7697 24.3715 10.767 24.0176 9.16824 23.3091C9.15238 23.302 9.13674 23.2945 9.12148 23.2867C3.9282 20.9559 4.74659 15.8321 4.85733 15.2539C4.94294 14.8075 5.37492 14.5148 5.82183 14.6003C6.26894 14.6856 6.5621 15.1168 6.47639 15.5631C6.39054 16.0117 5.75444 19.9975 9.83654 21.8028C9.85152 21.8094 9.86614 21.8163 9.88048 21.8238C13.2192 23.2801 18.6806 22.9918 26.1143 20.9661C26.5537 20.8462 27.0068 21.105 27.1266 21.5433C27.2465 21.9817 26.9876 22.4343 26.5484 22.5539C22.1034 23.7652 18.2984 24.3716 15.1645 24.3715Z" fill="#c5a059"/>
<path fill-rule="evenodd" clip-rule="evenodd" d="M45.4207 35.9987C43.4577 35.9987 41.5502 35.4752 39.8961 34.4624C37.8612 33.2144 36.451 31.4022 35.7045 29.0749C34.2008 24.3898 35.958 19.2587 40.0769 16.3066C43.8347 13.6113 48.5196 12.3471 54.0028 12.55C58.5297 12.7161 62.6238 11.113 66.1656 7.78241C68.8458 5.26315 70.1881 2.64884 70.201 2.62266C70.3584 2.31366 70.6918 2.13576 71.0352 2.17705C71.3801 2.21852 71.662 2.47021 71.7393 2.80757C71.7966 3.05432 73.1031 8.91216 69.2809 13.7261C66.1598 17.6577 60.6132 19.6603 52.7965 19.6779C52.796 19.6777 52.7952 19.6779 52.7946 19.6779C52.3403 19.6777 51.9714 19.3107 51.9705 18.8568C51.9694 18.4021 52.3375 18.033 52.7929 18.032C60.0723 18.0154 65.181 16.228 67.9772 12.7189C69.9291 10.2687 70.3384 7.43254 70.3398 5.49318C69.6315 6.48567 68.6354 7.71573 67.339 8.94001C63.5096 12.5595 58.876 14.3786 53.942 14.1948C48.8329 14.0071 44.4922 15.1666 41.0384 17.6437C37.5023 20.1779 35.9897 24.5699 37.2743 28.5727C37.8973 30.5144 39.0695 32.0241 40.7582 33.0597C42.6615 34.2248 44.972 34.6204 47.263 34.1731C49.2531 33.785 52.7786 31.9089 54.3352 28.3309C54.5167 27.9138 55.0024 27.7229 55.4196 27.904C55.8372 28.0851 56.0287 28.57 55.8472 28.9867C54.1523 32.8827 50.3731 35.2436 47.5791 35.7886C46.8588 35.9289 46.136 35.9987 45.4207 35.9987Z" fill="#c5a059"/>
<path fill-rule="evenodd" clip-rule="evenodd" d="M50.858 30.0181C45.7997 30.0181 41.3766 28.1081 41.1395 28.004C40.7229 27.8208 40.5336 27.3353 40.7169 26.9193C40.9003 26.5031 41.3866 26.3142 41.8034 26.4974C41.899 26.5388 48.8478 29.5232 54.8716 27.8651C57.9339 27.0201 60.255 25.107 61.7661 22.1783C61.9751 21.7741 62.473 21.6157 62.8766 21.8238C63.2816 22.0318 63.4404 22.5283 63.2315 22.9324C61.5 26.2858 58.8354 28.4795 55.3103 29.4518C53.8302 29.859 52.3176 30.0183 50.858 30.0181Z" fill="#c5a059"/>
<path fill-rule="evenodd" clip-rule="evenodd" d="M56.835 24.3697C53.7009 24.3697 49.8967 23.7636 45.4522 22.5523C45.013 22.4325 44.7541 21.9802 44.874 21.5418C44.994 21.1033 45.4469 20.8448 45.8862 20.9646C53.3193 22.9899 58.7815 23.2784 62.1214 21.8218C62.1358 21.8144 62.15 21.8077 62.1643 21.8014C66.2299 20.0042 65.6074 16.0084 65.5229 15.5586C65.44 15.1117 65.7347 14.6819 66.1826 14.5982C66.6306 14.5144 67.0598 14.809 67.1443 15.2556C67.253 15.8344 68.053 20.9661 62.8785 23.2859C62.8627 23.2934 62.8484 23.3009 62.8326 23.3077C61.2328 24.0161 59.2294 24.37 56.835 24.3697Z" fill="#c5a059"/>
<path fill-rule="evenodd" clip-rule="evenodd" d="M36.0002 1.64574C30.629 1.64574 27.2013 3.38125 27.2013 4.57597C27.2014 5.77051 30.629 7.50593 36.0002 7.50593C41.3715 7.50579 44.7992 5.77055 44.7992 4.57597C44.7992 3.38106 41.3715 1.64574 36.0002 1.64574ZM36.0002 9.15171C30.9356 9.15171 25.553 7.54804 25.553 4.57597C25.553 1.60329 30.9356 1.59564e-08 36.0002 1.59564e-08C41.065 -0.000184711 46.4476 1.60357 46.4476 4.57597C46.4476 7.54786 41.065 9.15185 36.0002 9.15171Z" fill="#c5a059"/>
</svg>
