<svg width="53" height="26" viewBox="0 0 53 26" fill="none" xmlns="http://www.w3.org/2000/svg">
<path fill-rule="evenodd" clip-rule="evenodd" d="M19.6974 25.9999C19.1804 25.9999 18.6581 25.9498 18.1374 25.848C16.1189 25.4531 13.3895 23.7474 12.1662 20.9357C12.0352 20.6346 12.1734 20.2846 12.475 20.1537C12.7764 20.0226 13.1271 20.1611 13.2582 20.4621C14.3103 22.8802 16.6435 24.3444 18.3662 24.6815C20.0217 25.0046 21.6899 24.7191 23.0639 23.8771C24.2818 23.1286 25.1285 22.0383 25.5801 20.6361C26.5076 17.7464 25.415 14.5744 22.8614 12.7434C20.3672 10.9542 17.2316 10.1167 13.5422 10.2526C9.97779 10.3843 6.63227 9.07164 3.86609 6.45739C2.93068 5.57326 2.2111 4.68495 1.69912 3.96802C1.70019 5.36847 1.99543 7.4169 3.40565 9.18668C5.42533 11.7209 9.11493 13.0121 14.3721 13.0239C14.701 13.0245 14.9669 13.2914 14.9661 13.6196C14.9654 13.9474 14.699 14.2127 14.3708 14.2127C14.3704 14.2126 14.3699 14.2127 14.3694 14.2127C8.72381 14.1998 4.71822 12.7538 2.46402 9.91415C-0.296044 6.43738 0.646818 2.20682 0.688242 2.02838C0.745033 1.78463 0.948511 1.60245 1.19736 1.57274C1.44663 1.54342 1.68703 1.6721 1.79977 1.8956C1.80913 1.91374 2.77831 3.80215 4.71364 5.62159C7.27237 8.02681 10.2264 9.18401 13.4983 9.06474C17.4573 8.91741 20.8421 9.83136 23.556 11.7779C26.5305 13.9105 27.7994 17.6165 26.7137 20.9995C26.1727 22.6796 25.1545 23.9884 23.6873 24.8899C22.4929 25.6217 21.1153 25.9999 19.6974 25.9999Z" fill="black"/>
<path fill-rule="evenodd" clip-rule="evenodd" d="M15.7699 21.6797C14.7159 21.6797 13.6238 21.565 12.5551 21.2707C10.0089 20.5697 8.08394 18.9855 6.83361 16.5621C6.68318 16.2701 6.79796 15.9118 7.09023 15.7615C7.38264 15.6109 7.74156 15.726 7.89212 16.0177C8.98387 18.1337 10.6591 19.5157 12.8716 20.1248C17.2292 21.3244 22.2599 19.1588 22.3102 19.1368C22.6112 19.005 22.9623 19.1417 23.0945 19.4422C23.2266 19.7424 23.09 20.093 22.7892 20.225C22.6178 20.3003 19.4227 21.6798 15.7699 21.6797Z" fill="black"/>
<path fill-rule="evenodd" clip-rule="evenodd" d="M11.452 17.6016C9.72241 17.6016 8.27602 17.3461 7.12136 16.8344C7.1099 16.8292 7.09861 16.8238 7.08759 16.8182C3.33689 15.1348 3.92794 11.4343 4.00792 11.0167C4.06975 10.6943 4.38174 10.4829 4.70451 10.5447C5.02742 10.6063 5.23914 10.9177 5.17724 11.24C5.11524 11.564 4.65584 14.4426 7.60402 15.7465C7.61484 15.7512 7.6254 15.7562 7.63575 15.7616C10.0471 16.8134 13.9914 16.6052 19.3602 15.1422C19.6775 15.0556 20.0048 15.2425 20.0912 15.5591C20.1779 15.8757 19.9909 16.2025 19.6737 16.2889C16.4634 17.1637 13.7153 17.6017 11.452 17.6016Z" fill="black"/>
<path fill-rule="evenodd" clip-rule="evenodd" d="M33.3037 25.9991C31.886 25.9991 30.5083 25.6211 29.3137 24.8896C27.8441 23.9882 26.8256 22.6794 26.2864 20.9986C25.2004 17.6149 26.4696 13.9091 29.4443 11.7771C32.1582 9.83048 35.5418 8.91743 39.5019 9.06398C42.7713 9.18389 45.7281 8.02612 48.2861 5.6207C50.2218 3.80123 51.1913 1.91312 51.2006 1.89421C51.3142 1.67104 51.555 1.54256 51.8031 1.57238C52.0522 1.60233 52.2558 1.78411 52.3116 2.02776C52.3529 2.20597 53.2965 6.43663 50.536 9.9134C48.2819 12.7528 44.2761 14.1992 38.6306 14.2119C38.6303 14.2118 38.6297 14.2119 38.6293 14.2119C38.3012 14.2118 38.0347 13.9467 38.0341 13.6189C38.0333 13.2905 38.2992 13.0239 38.6281 13.0232C43.8854 13.0112 47.575 11.7203 49.5945 9.18592C51.0042 7.41635 51.2998 5.36801 51.3008 3.96737C50.7893 4.68417 50.0699 5.57254 49.1335 6.45674C46.3679 9.07079 43.0214 10.3846 39.458 10.2518C35.768 10.1163 32.6331 10.9537 30.1387 12.7427C27.5848 14.573 26.4924 17.745 27.4202 20.6359C27.8701 22.0382 28.7167 23.1286 29.9364 23.8765C31.311 24.718 32.9796 25.0037 34.6343 24.6806C36.0715 24.4004 38.6177 23.0454 39.742 20.4613C39.8731 20.16 40.2238 20.0222 40.5251 20.153C40.8267 20.2837 40.965 20.6339 40.834 20.9349C39.6098 23.7487 36.8804 25.4538 34.8626 25.8474C34.3423 25.9487 33.8203 25.9992 33.3037 25.9991Z" fill="black"/>
<path fill-rule="evenodd" clip-rule="evenodd" d="M37.2309 21.6798C33.5776 21.6798 30.3832 20.3004 30.2119 20.2252C29.911 20.0929 29.7743 19.7423 29.9067 19.4418C30.0392 19.1412 30.3904 19.0048 30.6914 19.1371C30.7604 19.167 35.779 21.3224 40.1296 20.1249C42.3412 19.5146 44.0175 18.1329 45.1089 16.0177C45.2598 15.7258 45.6195 15.6114 45.9109 15.7617C46.2034 15.912 46.3181 16.2706 46.1672 16.5624C44.9167 18.9843 42.9923 20.5686 40.4463 21.2708C39.3774 21.5649 38.285 21.68 37.2309 21.6798Z" fill="black"/>
<path fill-rule="evenodd" clip-rule="evenodd" d="M41.5475 17.6004C39.2839 17.6004 36.5365 17.1627 33.3265 16.2879C33.0094 16.2014 32.8224 15.8747 32.909 15.558C32.9956 15.2413 33.3227 15.0547 33.64 15.1412C39.0083 16.6039 42.9532 16.8123 45.3654 15.7603C45.3758 15.7549 45.3861 15.7501 45.3964 15.7455C48.3326 14.4475 47.8831 11.5617 47.8221 11.2369C47.7622 10.9141 47.975 10.6037 48.2985 10.5432C48.622 10.4827 48.932 10.6954 48.993 11.018C49.0716 11.436 49.6493 15.1423 45.9122 16.8176C45.9008 16.8231 45.8905 16.8285 45.8791 16.8334C44.7236 17.345 43.2767 17.6006 41.5475 17.6004Z" fill="black"/>
<path fill-rule="evenodd" clip-rule="evenodd" d="M26.5001 1.18859C22.6209 1.18859 20.1453 2.44201 20.1453 3.30487C20.1454 4.16759 22.6208 5.42095 26.5 5.42095C30.3793 5.42085 32.8549 4.16762 32.8549 3.30487C32.8549 2.44188 30.3793 1.18859 26.5001 1.18859ZM26.5001 6.60957C22.8423 6.60957 18.9548 5.45137 18.9548 3.30487C18.9549 1.15793 22.8423 1.15241e-08 26.5 1.15241e-08C30.158 -0.000133403 34.0454 1.15813 34.0454 3.30487C34.0454 5.45123 30.1579 6.60967 26.5001 6.60957Z" fill="black"/>
</svg>
